PathFileType	4	(X/Y/Z)	C:/Users/opensim2020/Desktop/walking_exp_matlab/subject03_walking13_straight_04.trc	
DataRate	CameraRate	NumFrames	NumMarkers	Units	OrigDataRate	OrigDataStartFrame	OrigNumFrames	
100.00	100.00	4	46	mm	100.00	2237	200	
Frame#	Time	LFHD			RFHD			LBHD			RBHD			C7			T10			CLAV			STRN			RBAK			LSHO			LUPA			LELB			LFRM			LWRA			LWRB			LFIN			RSHO			RUPA			RELB			RFRM			RWRA			RWRB			RFIN			LASI			RASI			LPSI			RPSI			LTHI			LKNE			LTIB			LANK			LHEE			LTOE			RTHI			RKNE			RTIB			RANK			RHEE			RTOE			*39			*40			*41			*42			*43			*44			*45			
		X1	Y1	Z1	X2	Y2	Z2	X3	Y3	Z3	X4	Y4	Z4	X5	Y5	Z5	X6	Y6	Z6	X7	Y7	Z7	X8	Y8	Z8	X9	Y9	Z9	X10	Y10	Z10	X11	Y11	Z11	X12	Y12	Z12	X13	Y13	Z13	X14	Y14	Z14	X15	Y15	Z15	X16	Y16	Z16	X17	Y17	Z17	X18	Y18	Z18	X19	Y19	Z19	X20	Y20	Z20	X21	Y21	Z21	X22	Y22	Z22	X23	Y23	Z23	X24	Y24	Z24	X25	Y25	Z25	X26	Y26	Z26	X27	Y27	Z27	X28	Y28	Z28	X29	Y29	Z29	X30	Y30	Z30	X31	Y31	Z31	X32	Y32	Z32	X33	Y33	Z33	X34	Y34	Z34	X35	Y35	Z35	X36	Y36	Z36	X37	Y37	Z37	X38	Y38	Z38	X39	Y39	Z39	X40	Y40	Z40	X41	Y41	Z41	X42	Y42	Z42	X43	Y43	Z43	X44	Y44	Z44	X45	Y45	Z45	X46	Y46	Z46	

76	0.750	1488.69019	465.05893	1603.43079	1356.86230	476.84262	1612.43469	1491.99011	593.10913	1561.31189	1362.84204	600.27411	1570.21472	1426.22693	631.18585	1402.20569	1428.46924	658.28571	1087.27417	1426.21179	506.61557	1329.32434	1429.14600	461.01471	1165.11218	1323.24866	677.53326	1226.14795	1582.99011	555.96594	1361.74939	1647.16638	588.99963	1163.06189	1656.05835	600.73877	1039.56860	1658.37451	606.89240	909.13086	1629.79248	623.63287	788.12579	1682.25269	641.24890	801.58374	1669.16101	669.34509	718.52393	1266.92639	551.70673	1356.01428	1184.48389	502.53922	1145.88501	1169.68677	453.14136	1046.40063	1175.41931	374.77954	935.68359	1218.53870	304.04196	871.58209	1176.00378	326.75690	847.66046	1189.19531	268.91498	803.36426	1536.83911	478.94098	926.82080	1299.43811	500.11331	928.09894	1505.31104	645.59460	940.47150	1356.34436	656.69067	954.91522	1586.74390	464.66397	626.71417	1537.54065	392.58292	470.85541	1543.16614	370.43658	279.52179	1509.82300	309.11868	77.08006	1469.24207	335.26392	30.71795	1488.26221	155.73692	82.56992	1265.40503	602.95697	641.44495	1301.53845	631.56628	463.23993	1301.82007	738.97998	299.47897	1353.80371	838.17102	104.97184	1404.04895	890.00769	89.38964	1378.46082	710.88171	34.70931	1448.52063	552.89435	1669.89819																		 
77	0.760	1489.49683	452.43753	1602.54077	1357.63220	464.29477	1611.49597	1493.14929	580.76373	1560.58435	1363.72009	587.62067	1569.28674	1427.49231	618.55640	1401.16968	1429.17810	644.51740	1085.98694	1427.10999	493.60373	1328.47778	1429.96399	447.49472	1164.47986	1324.66699	664.54767	1224.70679	1584.02795	542.58533	1360.91870	1648.43042	576.78113	1162.46118	1657.57703	589.87915	1039.16809	1659.13098	596.92719	908.56165	1630.33997	615.75531	787.88574	1683.34204	632.09784	801.30328	1669.66138	663.38696	719.03687	1267.80249	539.51233	1355.06958	1185.18152	490.39456	1145.02612	1170.43103	440.87369	1045.69238	1176.42151	361.56723	935.72064	1219.63037	290.06104	872.88147	1177.52551	312.67191	848.14392	1190.51978	253.55011	805.22711	1537.22363	464.46906	926.48608	1299.92358	486.44464	926.79510	1505.93445	631.92889	940.13672	1357.05640	642.75049	953.85474	1586.28259	447.99219	627.56946	1537.39844	377.73383	471.16092	1541.86499	360.44302	277.43140	1507.28198	305.06030	73.88277	1467.15479	332.73236	29.18612	1484.17041	151.50513	75.37592	1265.75867	590.50751	640.44403	1300.76233	619.72705	462.11133	1300.79712	731.20959	300.75278	1352.50513	835.64087	108.89140	1402.67029	887.64825	94.92045	1378.18237	710.31860	34.66127																					 
78	0.770	1490.30469	439.73624	1601.74890	1358.39807	451.58337	1610.54541	1494.03564	568.08807	1559.93945	1364.52490	574.92047	1568.48816	1428.74768	605.77502	1400.08093	1429.75159	630.64990	1084.76331	1428.03662	480.57669	1327.75964	1430.80261	433.84375	1164.03137	1326.07300	651.42114	1223.36487	1585.17419	529.02325	1360.43140	1649.75867	564.16693	1161.98779	1658.56665	577.86932	1038.59460	1660.01001	586.34064	908.16492	1631.13562	607.04285	787.70844	1684.54578	622.24951	801.11975	1670.37207	656.13928	719.54504	1268.82068	527.21442	1354.33386	1186.15283	478.24963	1144.30994	1171.38538	428.75732	1044.97668	1177.49268	348.79526	935.56647	1220.33142	276.41663	873.81891	1178.98242	299.38898	848.25067	1191.59839	239.33174	806.67151	1537.72327	449.60120	926.35571	1300.49585	472.37595	925.43445	1506.39551	617.87036	939.95190	1357.61560	628.49127	952.88312	1586.30518	430.45255	628.41382	1536.94153	362.43945	471.16226	1540.21960	351.89771	274.99695	1504.08972	302.48923	70.49648	1465.17688	332.31476	27.32960	1479.51929	149.70438	66.88037	1266.01746	577.40125	639.36853	1299.82043	606.89032	460.85898	1299.64807	722.84509	302.00229	1351.20947	832.28906	113.21455	1401.51355	884.58435	101.11651	1377.96912	709.69000	34.60861	1448.99854	525.19421	1667.11060																		 
79	0.780	1491.12549	427.01718	1601.11304	1359.10876	438.93066	1609.73145	1495.04639	555.46570	1559.49536	1365.46545	562.43884	1567.84961	1429.95215	592.99078	1398.98511	1430.40051	616.45050	1083.56055	1429.06177	467.44150	1327.16956	1431.68726	419.84286	1163.87744	1327.51807	638.18127	1222.06665	1586.32739	515.74933	1359.90271	1651.03479	551.27875	1161.61792	1659.68677	565.65436	1038.31335	1660.97546	575.13831	907.85895	1632.20081	597.34589	787.64374	1685.86279	611.74536	801.02112	1671.34656	647.61359	720.06061	1269.94128	514.99457	1353.78467	1187.25659	466.26614	1143.56299	1172.55017	416.89142	1044.28772	1178.48828	336.67291	935.17712	1221.01477	263.62012	874.21808	1180.29675	286.86697	847.97040	1192.45276	226.10970	807.65186	1538.28772	434.98657	926.46808	1301.17529	457.92975	924.10016	1507.06812	602.95422	939.86743	1358.16833	614.16565	952.13080	1585.96838	412.68829	629.12958	1536.92725	348.58505	470.70697	1537.61267	343.97452	272.81613	1502.63098	298.59521	69.72820	1464.44287	330.73465	29.36166	1475.01855	145.78598	55.33915	1266.23120	563.46814	638.16736	1298.70679	593.07623	459.47375	1298.87878	713.73865	303.72604	1350.16162	828.31689	117.84225	1400.52063	880.73370	108.28088	1377.70886	709.13965	34.48128																					 
